<?xml version="1.0" encoding="UTF-8"?><svg id="Layer_2" xmlns="http://www.w3.org/2000/svg" viewBox="0 0 1455.53 159.52"><g id="Layer_1-2"><path d="m1433.13,54.34H183.61c-8.33-27.51-34.22-47.39-64.64-46.58-34.95.94-63.33,29.68-63.84,64.64-.54,36.71,29.06,66.63,65.64,66.63,29.63,0,54.67-19.64,62.83-46.6h1249.51c10.52,0,19.05-8.53,19.05-19.05h0c0-10.52-8.53-19.05-19.05-19.05Z" style="fill:#c7336c; stroke:#000; stroke-miterlimit:10; stroke-width:6.72px;"/><path d="m99.06,14.72C72.11-.9,31.93,12.47,28.07,27.72c-.09.35-1.16,4.97,1.34,8.61,5.16,7.52,22.01,3.72,32.6,2.28,13.91-1.9,34.09-2.05,60.53,6.31-2.61-7.49-8.98-21.8-23.48-30.2Z"/><path d="m107.61,95.73c-24.23,13.9-31.9,51.09-21.8,60.94.23.23,3.34,3.13,7.28,2.83,8.16-.63,12.78-15.42,16.41-24.28,4.78-11.65,13.72-27.38,32.09-44.15-6.99-1.34-20.95-2.82-33.99,4.66Z"/><path d="m81.66,53.31C41.68,51.97,3.08,88.33,6.36,111.26c.11.78,1.43,9.21,7.59,12.33,10.52,5.33,26.89-8.86,39.68-18.37,15.08-11.2,38.64-24.4,75.04-31.66-7.96-7.08-24.57-19.5-47.01-20.25Z"/><path d="m94.9,8.48C67.96-7.14,27.77,6.23,23.91,21.48c-.09.35-1.16,4.97,1.34,8.61,5.16,7.52,22.01,3.72,32.6,2.28,13.91-1.9,34.09-2.05,60.53,6.31-2.61-7.49-8.98-21.8-23.48-30.2Z" style="fill:#fbfbfb; stroke:#000; stroke-miterlimit:10; stroke-width:3px;"/><path d="m103.45,89.49c-24.23,13.9-31.9,51.09-21.8,60.94.23.23,3.34,3.13,7.28,2.83,8.16-.63,12.78-15.42,16.41-24.28,4.78-11.65,13.72-27.38,32.09-44.15-6.99-1.34-20.95-2.82-33.99,4.66Z" style="fill:#fbfbfb; stroke:#000; stroke-miterlimit:10; stroke-width:2.69px;"/><path d="m77.5,47.07C37.52,45.74-1.08,82.09,2.2,105.02c.11.78,1.43,9.21,7.59,12.33,10.52,5.33,26.89-8.86,39.68-18.37,15.08-11.2,38.64-24.4,75.04-31.66-7.96-7.08-24.57-19.5-47.01-20.25Z" style="fill:#fbfbfb; stroke:#000; stroke-miterlimit:10; stroke-width:4.01px;"/></g></svg>