<?xml version="1.0" encoding="UTF-8"?><svg id="Layer_2" xmlns="http://www.w3.org/2000/svg" viewBox="0 0 68.09 90.72"><g id="Layer_2-2"><g id="Layer_1-2"><path d="m65.54,11.79c2.04.83,2.54,1.6,2.54,3.87,0,15.29.01,30.58,0,45.86,0,4.8-2.05,8.53-6.16,11.04-7.4,4.51-17.38-.32-18.51-8.92-.87-6.67,3.38-12.67,9.91-13.94,2.7-.53,5.29-.16,7.76,1.03.2.1.4.2.6.29.04.02.08,0,.18.02v-20.22c-12.34,1.76-24.66,3.52-37.08,5.29v31.63c0,4.35-1.73,7.83-5.23,10.41-6.78,4.99-16.86,1.46-19.08-6.66-2.39-8.77,4.63-16.88,13.65-15.69,1.22.16,2.39.69,3.57,1.07.29.09.55.26.91.44V21.63c0-2.29.94-3.36,3.18-3.68,9.24-1.32,18.48-2.65,27.72-3.98,4.82-.69,9.64-1.37,14.46-2.05.13-.02.25-.08.38-.12h1.21,0Z"/></g><rect x="37.76" y="-2.62" width="4.38" height="95.95" transform="translate(19.7 -11.59) rotate(21.8)"/></g></svg>