<?xml version="1.0" encoding="UTF-8"?><svg id="Layer_2" xmlns="http://www.w3.org/2000/svg" viewBox="0 0 74.34 90.72"><g id="Layer_2-2"><g id="Layer_1-2"><path d="m74.34,48.13c-.19,1.48-.33,2.97-.57,4.45-1.19,7.49-4.16,14.19-8.86,20.14-.33.42-.66.84-1.04,1.21-1.22,1.2-3.09,1.28-4.43.21-2.01-1.6-2.29-3.53-.68-5.54,3.04-3.8,5.33-7.99,6.69-12.67,1.39-4.75,1.83-9.58,1.23-14.49-.82-6.74-3.36-12.76-7.57-18.09-.42-.53-.88-1.03-1.29-1.57-1.28-1.69-.92-3.63.92-5.15,1.44-1.18,3.46-1.01,4.75.45,2.23,2.53,4.15,5.28,5.73,8.27,2.89,5.46,4.58,11.26,4.99,17.43.01.19.08.37.12.56v4.79h0Z"/><path d="m37.19,45.74v22.42c0,2.08-1.13,3.47-3.01,3.72-1.08.14-1.97-.29-2.79-.97-4.45-3.69-8.9-7.38-13.35-11.06-1.45-1.2-2.89-2.42-4.37-3.6-.29-.23-.73-.39-1.1-.39-2.93-.03-5.85,0-8.78-.02-2.44,0-3.78-1.34-3.79-3.76v-12.7c0-2.36,1.38-3.73,3.75-3.73,2.9,0,5.81-.01,8.71,0,.51,0,.9-.12,1.31-.46,5.85-4.87,11.72-9.73,17.59-14.59,1.77-1.46,3.88-1.3,5.17.38.55.73.66,1.58.66,2.47v22.28h0Z"/><path d="m57.98,45.49c0,6.16-1.78,11.5-5.26,16.29-1.14,1.57-3.16,1.95-4.68.91-1.9-1.3-2.51-3.36-1.36-5.07,1.45-2.16,2.7-4.41,3.31-6.96,1.42-5.93.42-11.4-3.09-16.41-.51-.72-1.05-1.48-1.28-2.31-.46-1.6.59-3.37,2.28-4.17,1.44-.68,3.09-.26,4.15,1.07,3.92,4.95,5.91,10.58,5.94,16.66h0Z"/></g><rect x="36.25" y="-2.62" width="4.38" height="95.95" transform="translate(19.59 -11.03) rotate(21.8)"/></g></svg>